Coordinates
version=1
nRows=29
nColumns=22
inDegrees=yes

Units are S.I. units (second, meters, Newtons, ...)
If the header above contains a line with 'inDegrees', this indicates whether rotational values are in degrees (yes) or radians (no).

endheader
time	pelvis_tilt	pelvis_list	pelvis_rotation	pelvis_tx	pelvis_ty	pelvis_tz	hip_flexion_r	hip_adduction_r	hip_rotation_r	knee_angle_r	ankle_angle_r	subtalar_angle_r	hip_flexion_l	hip_adduction_l	hip_rotation_l	knee_angle_l	ankle_angle_l	subtalar_angle_l	lumbar_extension	lumbar_bending	lumbar_rotation
      6.14000000	     -5.83992553	     -4.23660639	    294.57800006	     -0.34028043	      1.01516355	      0.36019779	      9.86545299	      8.34625119	     -1.17419014	    -16.00100007	      5.28929395	      2.39432802	     12.06054967	     -9.20801623	     -0.44592844	    -55.70344468	      8.31487712	      0.66020856	    -13.85780429	      7.44854516	      3.58434774
      6.15000000	     -5.73259575	     -4.35848038	    295.02583827	     -0.33964886	      1.01585214	      0.36476635	      9.32060275	      8.38089532	     -1.43951254	    -15.78878116	      5.49553491	      2.21205032	     12.77100052	     -9.47688244	     -1.18146815	    -55.67279816	      8.81220794	     -0.10556439	    -14.08181781	      7.38479605	      3.97388533
      6.16000000	     -5.62277346	     -4.46464152	    295.46148095	     -0.33891064	      1.01649944	      0.36922455	      8.78560955	      8.40355469	     -1.70206765	    -15.56086600	      5.67375639	      2.04419060	     13.44499648	     -9.66127490	     -1.83968257	    -55.47327072	      9.26756698	     -0.63188914	    -14.29101872	      7.32390894	      4.37905172
      6.17000000	     -5.49506255	     -4.54324349	    295.90500855	     -0.33805595	      1.01707785	      0.37356840	      8.27254635	      8.39012385	     -1.98338009	    -15.33554027	      5.89071564	      1.89186419	     14.09184119	     -9.74826656	     -2.43110874	    -55.11347006	      9.69437943	     -0.95445504	    -14.47910906	      7.24602955	      4.71816597
      6.18000000	     -5.38378886	     -4.58032057	    296.35023209	     -0.33710434	      1.01753313	      0.37775085	      7.83581824	      8.36153346	     -2.32537951	    -15.14887156	      6.07456255	      1.81537764	     14.75519353	     -9.76694924	     -2.95186880	    -54.62364579	     10.07195869	     -1.05195798	    -14.62185448	      7.17700486	      5.08193299
      6.19000000	     -5.27190722	     -4.62300669	    296.80441189	     -0.33604550	      1.01794649	      0.38185089	      7.37836062	      8.33401511	     -2.65455827	    -14.93249215	      6.27555799	      1.69852201	     15.36698675	     -9.74391830	     -3.43448545	    -53.99586801	     10.41824105	     -1.13744025	    -14.76820559	      7.12082373	      5.40369986
      6.20000000	     -5.13303973	     -4.70084396	    297.27921394	     -0.33486319	      1.01840426	      0.38588154	      6.85648330	      8.29656669	     -3.00130355	    -14.68296133	      6.47312187	      1.47727858	     15.87834498	     -9.67582254	     -3.88742264	    -53.22188237	     10.67683683	     -1.20348096	    -14.96159104	      7.06457685	      5.67190146
      6.21000000	     -5.03920978	     -4.73824613	    297.75678785	     -0.33363711	      1.01868309	      0.38978173	      6.42303842	      8.27780058	     -3.37408037	    -14.47130785	      6.66161759	      1.34693463	     16.43643967	     -9.61556297	     -4.33543680	    -52.38302354	     10.94167627	     -1.16238847	    -15.09678362	      7.03708399	      5.95294455
      6.22000000	     -4.95972880	     -4.77118795	    298.24775570	     -0.33232161	      1.01889166	      0.39360317	      6.00928006	      8.26769689	     -3.76344318	    -14.27158377	      6.86053397	      1.23849568	     16.97247255	     -9.55808477	     -4.79520603	    -51.45766680	     11.17574381	     -1.09341845	    -15.21690178	      7.02940818	      6.20181571
      6.23000000	     -4.89242372	     -4.80853496	    298.74655491	     -0.33093804	      1.01904423	      0.39735597	      5.60816902	      8.27075221	     -4.16585345	    -14.08688476	      7.05623967	      1.13944776	     17.48081913	     -9.52001382	     -5.29422363	    -50.46699135	     11.38436370	     -1.02716575	    -15.33442942	      7.03858887	      6.43474082
      6.24000000	     -4.84026690	     -4.84530725	    299.25026750	     -0.32949479	      1.01913397	      0.40104868	      5.22887063	      8.28810369	     -4.57087718	    -13.92319017	      7.25921958	      1.06008312	     17.97087928	     -9.50938764	     -5.84915356	    -49.42845701	     11.57849417	     -0.99288269	    -15.44122862	      7.06275490	      6.65097878
      6.25000000	     -4.79160656	     -4.89193096	    299.75613588	     -0.32799490	      1.01919511	      0.40469174	      4.85641549	      8.31454757	     -4.97778325	    -13.78274902	      7.46420443	      0.98822577	     18.42643373	     -9.52639678	     -6.47685097	    -48.35344245	     11.75057450	     -1.00029950	    -15.55393690	      7.09313452	      6.85033817
      6.26000000	     -4.75263639	     -4.93854757	    300.25864189	     -0.32643260	      1.01921225	      0.40827687	      4.50618784	      8.35029090	     -5.38053730	    -13.67031287	      7.67075667	      0.93215116	     18.86449225	     -9.57209001	     -7.18493252	    -47.26070075	     11.90455282	     -1.05194024	    -15.65998814	      7.13583912	      7.04052113
      6.27000000	     -4.70675493	     -4.99419981	    300.75881459	     -0.32481579	      1.01922245	      0.41183022	      4.15902257	      8.38635088	     -5.77709809	    -13.58554120	      7.88636501	      0.88005623	     19.26445438	     -9.63413768	     -7.97231017	    -46.15363577	     12.03531395	     -1.14991509	    -15.77529496	      7.17078805	      7.21550731
      6.28000000	     -4.64272921	     -5.06735919	    301.25192182	     -0.32314441	      1.01925810	      0.41533881	      3.79855728	      8.41744524	     -6.15082379	    -13.52336530	      8.08999208	      0.82739401	     19.61347918	     -9.70721029	     -8.84750685	    -45.04321915	     12.12448973	     -1.31383357	    -15.91881165	      7.19671005	      7.35293411
      6.29000000	     -4.57391205	     -5.13926409	    301.74269951	     -0.32140914	      1.01927675	      0.41879907	      3.45269197	      8.44383422	     -6.52088690	    -13.48946382	      8.30446478	      0.78049889	     19.94285757	     -9.77720893	     -9.76779537	    -43.94199648	     12.19314517	     -1.49315458	    -16.05939894	      7.21490143	      7.48440096
      6.30000000	     -4.49041833	     -5.20839913	    302.22927519	     -0.31960710	      1.01929152	      0.42220290	      3.11585629	      8.45504395	     -6.88014625	    -13.48277862	      8.53445455	      0.73425885	     20.24740126	     -9.82862106	    -10.72372378	    -42.85281001	     12.23327141	     -1.66499498	    -16.20413629	      7.21649022	      7.59400148
      6.31000000	     -4.40142974	     -5.26601240	    302.71405103	     -0.31774383	      1.01927824	      0.42554558	      2.80333591	      8.45306117	     -7.24758906	    -13.50653134	      8.78206975	      0.68935885	     20.54619072	     -9.85464411	    -11.67932287	    -41.78497113	     12.24620168	     -1.79538028	    -16.33882837	      7.20398883	      7.70054284
      6.32000000	     -4.28344899	     -5.33478985	    303.19513830	     -0.31581192	      1.01930705	      0.42883164	      2.46839854	      8.43217852	     -7.59064448	    -13.53941691	      9.01762583	      0.63878198	     20.79800944	     -9.84773731	    -12.64171391	    -40.73124823	     12.20977785	     -1.92387173	    -16.50221793	      7.17220641	      7.75782450
      6.33000000	     -4.14454418	     -5.43510936	    303.67897197	     -0.31380770	      1.01938941	      0.43207344	      2.08749027	      8.41456747	     -7.91713346	    -13.56333152	      9.21923358	      0.58080884	     20.99525357	     -9.82279527	    -13.57926277	    -39.70140109	     12.14314724	     -2.04637606	    -16.70605818	      7.14047324	      7.77999666
      6.34000000	     -4.00825470	     -5.48110030	    304.16397917	     -0.31174905	      1.01937608	      0.43523079	      1.77514505	      8.36419285	     -8.24534905	    -13.62067111	      9.47246640	      0.52853484	     21.23451217	     -9.73900166	    -14.45989571	    -38.69929499	     12.04591718	     -2.06661095	    -16.85468248	      7.08033616	      7.76941175
      6.35000000	     -3.87144878	     -5.52359524	    304.65013589	     -0.30962819	      1.01934387	      0.43834131	      1.46650449	      8.31034326	     -8.59399909	    -13.68175961	      9.72209090	      0.47631012	     21.46653960	     -9.62688308	    -15.27244948	    -37.72756311	     11.92008050	     -2.04289843	    -16.99448885	      7.01448560	      7.77051689
      6.36000000	     -3.70422700	     -5.60312726	    305.13689786	     -0.30744279	      1.01938071	      0.44142387	      1.08550985	      8.25896452	     -8.90462558	    -13.70742836	      9.94076048	      0.41332012	     21.62778868	     -9.49509203	    -16.04291111	    -36.77773328	     11.78549895	     -1.96413480	    -17.18835791	      6.94517783	      7.71490098
      6.37000000	     -3.55222448	     -5.65427411	    305.62237157	     -0.30520982	      1.01934042	      0.44445595	      0.74187289	      8.20312678	     -9.23409653	    -13.73956418	     10.17399082	      0.35687419	     21.81647108	     -9.33865581	    -16.73920262	    -35.86700371	     11.63241845	     -1.84664438	    -17.34105714	      6.87005517	      7.66609906
      6.38000000	     -3.40315509	     -5.70276118	    306.10327074	     -0.30293112	      1.01927141	      0.44746007	      0.39389299	      8.15098253	     -9.56132954	    -13.75881894	     10.40544432	      0.30263062	     21.99597741	     -9.17071648	    -17.37675436	    -34.99222738	     11.47326114	     -1.70336309	    -17.48590667	      6.79311090	      7.61232119
      6.39000000	     -3.25745082	     -5.74638893	    306.57660166	     -0.30061344	      1.01916844	      0.45044398	      0.04437106	      8.10170413	     -9.88317144	    -13.76801722	     10.64001635	      0.25203118	     22.16553997	     -8.99434204	    -17.95943505	    -34.15339875	     11.31193819	     -1.55316532	    -17.62245778	      6.71238562	      7.55714546
      6.40000000	     -3.11725245	     -5.79642407	    307.03808228	     -0.29825747	      1.01904075	      0.45342688	     -0.31962614	      8.06535877	    -10.19915629	    -13.75909152	     10.87011981	      0.20677217	     22.31692807	     -8.82680180	    -18.50303343	    -33.35856951	     11.15675033	     -1.40413669	    -17.75601651	      6.63436040	      7.51513551
      6.41000000	     -3.00168884	     -5.81771774	    307.48301012	     -0.29587377	      1.01882075	      0.45639522	     -0.64389529	      8.03211288	    -10.51153404	    -13.75253430	     11.12557464	      0.17033507	     22.49291153	     -8.65954642	    -18.99497802	    -32.60740207	     11.00178887	     -1.30707404	    -17.84456963	      6.55378285	      7.49093393
      6.42000000	     -2.86429587	     -5.88738657	    307.91206326	     -0.29344108	      1.01866437	      0.45939853	     -1.05413337	      8.02028181	    -10.79078387	    -13.69762440	     11.34405198	      0.14154216	     22.58739926	     -8.51860396	    -19.48457953	    -31.89958308	     10.88306060	     -1.19431060	    -17.98933771	      6.48010817	      7.45790395
